<svg xmlns="http://www.w3.org/2000/svg" version="1.1" style="shape-rendering:geometricPrecision; text-rendering:geometricPrecision; image-rendering:optimizeQuality; fill-rule:evenodd; clip-rule:evenodd" xmlns:xlink="http://www.w3.org/1999/xlink" viewBox="164.5 41.5 549.5 415">
<g><path style="opacity:0.948" fill="#000000" d="M 434.5,41.5 C 466.987,46.3636 499.32,52.1969 531.5,59C 562.997,79.5827 594.664,99.9161 626.5,120C 628,121.5 629.5,123 631,124.5C 649.087,151.008 667.42,177.341 686,203.5C 695.727,229.348 705.061,255.348 714,281.5C 712.159,318.132 710.159,354.799 708,391.5C 707.727,393.101 707.227,394.601 706.5,396C 689.771,404.364 673.104,412.698 656.5,421C 623.833,428 591.167,435 558.5,442C 509.711,447.196 460.878,452.029 412,456.5C 366.419,450.56 320.919,444.06 275.5,437C 247.279,427.593 218.945,418.593 190.5,410C 180.648,400.916 171.981,390.916 164.5,380C 164.781,356.193 164.781,332.36 164.5,308.5C 164.779,301.152 165.279,293.818 166,286.5C 172.491,259.536 178.824,232.536 185,205.5C 204.777,176.058 224.943,146.891 245.5,118C 278,98.5845 310.333,78.9178 342.5,59C 373.32,53.2554 403.986,47.4221 434.5,41.5 Z M 440.5,48.5 C 450.505,50.4682 460.505,52.6349 470.5,55C 460.523,54.8345 450.523,54.5012 440.5,54C 439.692,53.6924 439.025,53.1924 438.5,52.5C 439.63,51.3777 440.297,50.0443 440.5,48.5 Z M 426.5,50.5 C 428.942,50.3537 429.609,51.187 428.5,53C 421.859,54.1194 415.192,54.4528 408.5,54C 414.716,53.2379 420.716,52.0713 426.5,50.5 Z M 390.5,62.5 C 395.179,62.3342 399.845,62.5008 404.5,63C 378.167,73.3469 351.834,83.3469 325.5,93C 332.552,84.2817 339.219,75.2817 345.5,66C 360.671,65.0623 375.671,63.8957 390.5,62.5 Z M 424.5,62.5 C 425.139,63.0968 425.472,63.9302 425.5,65C 422.235,83.087 419.569,101.254 417.5,119.5C 388.034,113.8 358.7,107.467 329.5,100.5C 361.257,87.8091 392.923,75.1424 424.5,62.5 Z M 432.5,62.5 C 463.251,74.6973 493.918,87.1973 524.5,100C 491.274,107.079 457.941,113.579 424.5,119.5C 427.54,100.551 430.207,81.5511 432.5,62.5 Z M 454.5,63.5 C 478.36,63.1639 502.36,63.9972 526.5,66C 529.496,75.8134 531.496,85.6468 532.5,95.5C 506.557,84.6317 480.557,73.965 454.5,63.5 Z M 601.5,113.5 C 581.825,108.832 562.159,103.998 542.5,99C 539.304,89.6784 537.137,80.1784 536,70.5C 558.155,84.4841 579.988,98.8174 601.5,113.5 Z M 327.5,77.5 C 322.794,85.053 317.46,92.2196 311.5,99C 299.119,102.406 286.786,105.906 274.5,109.5C 291.993,98.5852 309.659,87.9185 327.5,77.5 Z M 317.5,106.5 C 348.577,112.549 379.577,119.049 410.5,126C 376.915,147.709 343.415,169.542 310,191.5C 312.496,163.201 314.996,134.867 317.5,106.5 Z M 529.5,106.5 C 531.288,106.215 532.955,106.548 534.5,107.5C 531.405,135.116 528.572,162.782 526,190.5C 525.692,191.308 525.192,191.975 524.5,192.5C 493.029,170.861 461.695,149.028 430.5,127C 463.506,119.945 496.506,113.112 529.5,106.5 Z M 541.5,109.5 C 569.453,136.451 597.453,163.451 625.5,190.5C 594.825,192.633 564.159,194.633 533.5,196.5C 535.706,167.438 538.373,138.438 541.5,109.5 Z M 552.5,109.5 C 575.602,114.859 598.602,120.692 621.5,127C 623.219,133.02 624.386,139.186 625,145.5C 626.504,158.193 627.837,170.86 629,183.5C 603.05,159.385 577.55,134.718 552.5,109.5 Z M 299.5,110.5 C 277.116,133.052 254.283,155.052 231,176.5C 236.343,159.146 242.509,141.979 249.5,125C 266.038,119.653 282.705,114.82 299.5,110.5 Z M 309.5,111.5 C 310.097,111.735 310.43,112.235 310.5,113C 307.273,140.106 304.606,167.273 302.5,194.5C 278.42,193.071 254.087,191.238 229.5,189C 256.115,162.881 282.782,137.048 309.5,111.5 Z M 414.5,131.5 C 415.239,131.369 415.906,131.536 416.5,132C 413.984,161.745 411.984,191.579 410.5,221.5C 378.342,213.961 346.342,205.794 314.5,197C 348.069,175.392 381.403,153.558 414.5,131.5 Z M 423.5,131.5 C 455.344,153.836 487.344,176.003 519.5,198C 485.583,206.15 451.583,213.984 417.5,221.5C 419.311,191.483 421.311,161.483 423.5,131.5 Z M 631.5,139.5 C 645.97,159.486 660.304,179.653 674.5,200C 662.207,197.345 649.873,194.512 637.5,191.5C 635.828,174.128 633.828,156.794 631.5,139.5 Z M 231.5,150.5 C 227.307,163.245 222.807,175.912 218,188.5C 212.478,191.844 206.645,194.511 200.5,196.5C 210.351,180.784 220.684,165.451 231.5,150.5 Z M 224.5,196.5 C 249.187,198.002 273.854,199.835 298.5,202C 275,232.833 251.5,263.667 228,294.5C 226.648,261.838 225.482,229.171 224.5,196.5 Z M 612.5,198.5 C 618.167,198.5 623.833,198.5 629.5,198.5C 624.101,233.56 618.268,268.56 612,303.5C 586.833,270.5 561.667,237.5 536.5,204.5C 561.934,201.996 587.268,199.996 612.5,198.5 Z M 211.5,199.5 C 212.043,199.56 212.376,199.893 212.5,200.5C 201.397,221.04 190.563,241.707 180,262.5C 182.879,244.645 186.879,226.978 192,209.5C 198.596,206.253 205.096,202.92 211.5,199.5 Z M 642.5,200.5 C 655.161,203.497 667.827,206.497 680.5,209.5C 682.747,233.825 684.913,257.825 687,281.5C 672.157,254.478 657.323,227.478 642.5,200.5 Z M 310.5,205.5 C 310.917,204.876 311.584,204.543 312.5,204.5C 344.104,212.083 375.437,220.416 406.5,229.5C 384.423,258.655 362.59,287.988 341,317.5C 331.1,279.984 320.933,242.651 310.5,205.5 Z M 519.5,205.5 C 520.873,205.343 522.207,205.51 523.5,206C 509.822,243.863 495.988,281.696 482,319.5C 461.167,289.333 440.333,259.167 419.5,229C 453.027,221.45 486.36,213.617 519.5,205.5 Z M 216.5,206.5 C 218.753,237.981 219.92,269.648 220,301.5C 205.032,296.8 189.865,292.8 174.5,289.5C 188.735,262.031 202.735,234.365 216.5,206.5 Z M 636.5,206.5 C 653.378,235.911 670.045,265.577 686.5,295.5C 686.291,296.086 685.957,296.586 685.5,297C 663.456,300.643 641.456,304.476 619.5,308.5C 624.398,274.346 630.065,240.346 636.5,206.5 Z M 333.5,320.5 C 299.104,315.101 264.771,309.267 230.5,303C 255.051,271.451 279.217,239.617 303,207.5C 313.937,244.911 324.104,282.578 333.5,320.5 Z M 529.5,207.5 C 555.632,241.073 581.299,275.073 606.5,309.5C 566.999,315.191 527.666,319.691 488.5,323C 502.665,284.671 516.332,246.171 529.5,207.5 Z M 412.5,233.5 C 434.163,262.864 455.163,292.864 475.5,323.5C 471.167,323.833 466.833,324.167 462.5,324.5C 424.163,323.647 385.829,322.647 347.5,321.5C 369.176,292.137 390.843,262.804 412.5,233.5 Z M 690.5,238.5 C 695.865,252.255 700.865,266.255 705.5,280.5C 702.925,284.582 699.758,288.249 696,291.5C 693.903,273.862 692.07,256.195 690.5,238.5 Z M 704.5,292.5 C 705.376,292.369 706.043,292.702 706.5,293.5C 705.136,312.791 703.97,332.124 703,351.5C 700.873,334.985 698.707,318.485 696.5,302C 698.988,298.679 701.655,295.512 704.5,292.5 Z M 173.5,296.5 C 189.139,299.908 204.473,304.242 219.5,309.5C 210.769,336.859 201.936,364.192 193,391.5C 186.336,359.847 179.836,328.18 173.5,296.5 Z M 681.5,304.5 C 683.527,304.338 685.527,304.505 687.5,305C 676.804,338.756 666.304,372.59 656,406.5C 644.11,376.387 631.943,346.387 619.5,316.5C 640.272,312.485 660.938,308.485 681.5,304.5 Z M 230.5,310.5 C 264.902,316.343 299.235,322.509 333.5,329C 315.054,360.72 296.721,392.553 278.5,424.5C 261.954,386.739 245.954,348.739 230.5,310.5 Z M 224.5,316.5 C 240.243,353.209 255.91,390.042 271.5,427C 247.489,420.111 223.489,412.777 199.5,405C 198.572,404.612 197.905,403.945 197.5,403C 206.406,374.118 215.406,345.284 224.5,316.5 Z M 603.5,317.5 C 604.978,317.238 606.311,317.571 607.5,318.5C 589.083,356.28 570.583,393.947 552,431.5C 531.542,398.081 510.709,364.914 489.5,332C 492.561,330.884 495.728,330.051 499,329.5C 533.832,326.209 568.665,322.209 603.5,317.5 Z M 690.5,318.5 C 694.227,342.636 697.56,366.97 700.5,391.5C 687.903,397.634 675.237,403.467 662.5,409C 672.066,378.902 681.399,348.735 690.5,318.5 Z M 613.5,322.5 C 625.985,352.983 638.652,383.483 651.5,414C 620.97,420.758 590.47,427.591 560,434.5C 577.499,397.163 595.332,359.83 613.5,322.5 Z M 185.5,393.5 C 180.836,389.669 176.67,385.336 173,380.5C 172.333,363.5 172.333,346.5 173,329.5C 177.362,350.81 181.529,372.143 185.5,393.5 Z M 346.5,329.5 C 389.845,330.003 433.178,331.003 476.5,332.5C 454.5,370.167 432.5,407.833 410.5,445.5C 388.63,407.089 367.296,368.423 346.5,329.5 Z M 338.5,333.5 C 360.266,371.523 381.933,409.69 403.5,448C 363.778,442.873 324.112,437.04 284.5,430.5C 302.259,397.978 320.259,365.645 338.5,333.5 Z M 482.5,335.5 C 483.458,335.953 484.292,336.619 485,337.5C 505.375,370.417 525.875,403.251 546.5,436C 503.54,440.719 460.54,444.719 417.5,448C 439.789,410.874 461.455,373.374 482.5,335.5 Z"/></g>
</svg>